<mxfile host="app.diagrams.net" modified="2024-06-02T07:15:42.175Z" agent="Mozilla/5.0 (Windows NT 10.0; Win64; x64) AppleWebKit/537.36 (KHTML, like Gecko) Chrome/81.0.4044.113 Safari/537.36" version="24.4.13" etag="MwRzxVFvySmbbDAeD301" type="github">
  <diagram name="第 1 页" id="ncpso3jjdmiI-OaUoQfX">
    <mxGraphModel>
      <root>
        <mxCell id="0" />
        <mxCell id="1" parent="0" />
      </root>
    </mxGraphModel>
  </diagram>
</mxfile>
